# xmcd CD database file
#
# Track frame offsets:
#	150
#	17882
#	37497
#	63707
#	75217
#	95632
#	110437
#	142157
#	166227
#	205147
#
# Disc length: 2894 seconds
#
# Revision: 8
# Processed by: cddbd v1.5.2PL0 Copyright (c) Steve Scherf et al.
# Submitted via: CDex 1.70beta2
#
DISCID=8d0b4c0a
DTITLE=Aretha Franklin - Aretha Live At Fillmore West
DYEAR=1971
DGENRE=Soul
TTITLE0=Respect (Live 5-2-1971 Fillmore West, San Francisco)
TTITLE1=Love The One You're With (Live 5-2-1971 Fillmore West, San Francisco)
TTITLE2=Bridge Over Troubled Water (Live 5-2-1971 Fillmore West, San Francisco)
TTITLE3=Eleanor Rigby (Live 5-2-1971 Fillmore West, San Francisco)
TTITLE4=Make It With You (Live 5-2-1971 Fillmore West, San Francisco)
TTITLE5=Don't Play That Song (Live 5-2-1971 Fillmore West, San Francisco)
TTITLE6=Dr. Feelgood (Live 5-2-1971 Fillmore West, San Francisco)
TTITLE7=Spirit In The Dark (Live7-2-1971 Fillmore West, San Francisco)
TTITLE8=Spirit In The Dark (Reprise)(Featuring Ray Charles) (Live7-2-1971 Fillmore West, San Francisco)
TTITLE9=Reach Out And Touch (Somebody's hand) (Live7-2-1971 Fillmore West, San Francisco)
EXTD=YEAR: 1971
EXTT0=
EXTT1=
EXTT2=
EXTT3=
EXTT4=
EXTT5=
EXTT6=
EXTT7=
EXTT8=
EXTT9=
PLAYORDER=
